<?xml version="1.0" encoding="iso-8859-1"?>
<!-- Uploaded to: SVG Repo, www.svgrepo.com, Generator: SVG Repo Mixer Tools -->
<svg version="1.1" id="Layer_1" xmlns="http://www.w3.org/2000/svg" xmlns:xlink="http://www.w3.org/1999/xlink" 
	 viewBox="0 0 512.001 512.001" xml:space="preserve">
<path style="fill:#F0EFEF;" d="M67.673,101.293h256.876c15.502,0,28.066,12.566,28.066,28.066v228.056H39.606V129.36
	C39.606,113.859,52.172,101.293,67.673,101.293z"/>
<rect x="39.606" y="327.79" style="opacity:0.05;enable-background:new    ;" width="313.011" height="29.621"/>
<path style="fill:#D1D3D3;" d="M52.206,332.523H20.109c-6.73,0-12.186,5.455-12.186,12.186v25.415
	c0,6.73,5.455,12.186,12.186,12.186h32.098c6.73,0,12.186-5.456,12.186-12.186v-25.415
	C64.392,337.978,58.936,332.523,52.206,332.523z"/>
<path style="fill:#00AD68;" d="M479.184,357.415H352.615V129.36h89.318c20.573,0,37.252,16.678,37.252,37.251v190.804H479.184z"/>
<path style="opacity:0.08;enable-background:new    ;" d="M414.942,357.415c0-34.423-27.905-62.327-62.327-62.327
	s-62.329,27.905-62.329,62.327H414.942z"/>
<circle style="fill:#333E48;" cx="352.615" cy="357.412" r="53.295"/>
<circle style="fill:#C3C6C8;" cx="352.615" cy="357.412" r="23.773"/>
<path style="opacity:0.08;enable-background:new    ;" d="M80.6,295.087c-15.7,0-30.034,5.819-40.994,15.4v46.928h103.322
	C142.928,322.993,115.023,295.087,80.6,295.087z"/>
<circle style="fill:#333E48;" cx="80.603" cy="357.412" r="53.295"/>
<circle style="fill:#C3C6C8;" cx="80.603" cy="357.412" r="23.773"/>
<path style="fill:#D1D3D3;" d="M491.892,332.523h-32.098c-6.73,0-12.186,5.455-12.186,12.186v25.415
	c0,6.73,5.455,12.186,12.186,12.186h32.098c6.73,0,12.186-5.456,12.186-12.186v-25.415
	C504.077,337.978,498.622,332.523,491.892,332.523z"/>
<g>
	<path style="fill:#FF495C;" d="M84.231,160.394H71.29c-4.376,0-7.923-3.547-7.923-7.923s3.547-7.923,7.923-7.923h12.941
		c4.376,0,7.923,3.547,7.923,7.923C92.154,156.848,88.606,160.394,84.231,160.394z"/>
	<path style="fill:#FF495C;" d="M196.111,160.394H183.17c-4.376,0-7.923-3.547-7.923-7.923s3.547-7.923,7.923-7.923h12.941
		c4.376,0,7.923,3.547,7.923,7.923C204.034,156.848,200.486,160.394,196.111,160.394z"/>
	<path style="fill:#FF495C;" d="M320.932,160.394H307.99c-4.376,0-7.923-3.547-7.923-7.923s3.547-7.923,7.923-7.923h12.942
		c4.376,0,7.923,3.547,7.923,7.923C328.854,156.848,325.307,160.394,320.932,160.394z"/>
</g>
<path style="fill:#D1D3D3;" d="M324.549,101.293H67.673c-15.501,0-28.065,12.566-28.065,28.066h313.007
	C352.615,113.859,340.049,101.293,324.549,101.293z"/>
<path style="fill:#57C9E8;" d="M428.964,253.318h50.221V166.61h-50.221c-6.056,0-10.967,4.91-10.967,10.968v64.773
	C417.996,248.408,422.907,253.318,428.964,253.318z"/>
<path style="fill:#FFD13F;" d="M452.391,300.958h26.793v31.564h-26.793c-4.194,0-7.593-3.399-7.593-7.593V308.55
	C444.798,304.357,448.197,300.958,452.391,300.958z"/>
<g>
	<path style="fill:#57C9E8;" d="M285.03,228.428l-29.895-33.043c-2.124-2.347-6.007-1.395-6.802,1.669l-3.801,14.617
		c-0.798,3.066-3.565,5.206-6.733,5.206h-59.692c-2.473,0-4.634,1.671-5.257,4.064l-7.817,30.068
		c-0.895,3.44,1.701,6.798,5.256,6.798h56.543c2.886,0,4.996,2.727,4.269,5.521l-2.85,10.963c-0.932,3.583,3.106,6.385,6.137,4.259
		l48.868-34.289C288.484,240.591,289.317,233.167,285.03,228.428z"/>
	<path style="fill:#57C9E8;" d="M138.525,255.802c-0.66,0-1.33-0.083-1.999-0.257c-4.235-1.101-6.776-5.427-5.675-9.662
		l6.188-23.803c1.102-4.235,5.43-6.773,9.662-5.675c4.235,1.101,6.776,5.427,5.675,9.662l-6.188,23.803
		C145.261,253.438,142.046,255.802,138.525,255.802z"/>
	<path style="fill:#57C9E8;" d="M109.764,255.802c-0.659,0-1.33-0.083-1.999-0.257c-4.235-1.101-6.776-5.427-5.675-9.662
		l6.188-23.803c1.101-4.235,5.429-6.773,9.662-5.675c4.235,1.101,6.776,5.427,5.675,9.662l-6.188,23.803
		C116.5,253.438,113.285,255.802,109.764,255.802z"/>
</g>
<path style="opacity:0.08;enable-background:new    ;" d="M441.933,129.36h-89.318v37.251h126.569
	C479.184,146.037,462.506,129.36,441.933,129.36z"/>
<path style="opacity:0.2;fill:#FFFFFF;enable-background:new    ;" d="M417.996,239.435v2.916c0,6.057,4.91,10.968,10.967,10.968
	h50.221v-75.072L417.996,239.435z"/>
<path style="opacity:0.08;enable-background:new    ;" d="M420.1,269.597h-17.955c-5.132,0-9.293-4.161-9.293-9.293v-39.097
	c0-5.132,4.161-9.293,9.293-9.293H420.1c5.132,0,9.293,4.16,9.293,9.293v39.097C429.393,265.436,425.232,269.597,420.1,269.597z"/>
<path style="fill:#333E48;" d="M425.49,262.812h-17.177c-4.909,0-8.891-3.981-8.891-8.891v-39.55c0-4.91,3.982-8.892,8.891-8.892
	h17.177c4.91,0,8.892,3.982,8.892,8.892v39.55C434.381,258.832,430.401,262.812,425.49,262.812z"/>
<path d="M491.892,324.6h-4.783V166.61c0-24.909-20.265-45.174-45.175-45.174h-82.285c-3.62-16.045-17.978-28.066-35.1-28.066H67.673
	c-19.844,0-35.988,16.145-35.988,35.989v191.298c-0.96,1.274-1.86,2.595-2.72,3.942H20.11C9.021,324.6,0,333.62,0,344.707v25.415
	c0,11.088,9.021,20.109,20.109,20.109h8.855c10.878,17.056,29.951,28.4,51.637,28.4c31.069,0,56.787-23.269,60.687-53.293h150.642
	c3.9,30.023,29.618,53.293,60.687,53.293c31.068,0,56.786-23.269,60.686-53.293h26.385v4.784c0,11.088,9.021,20.109,20.109,20.109
	h32.098c11.088,0,20.109-9.021,20.109-20.109v-25.415C512,333.62,502.979,324.6,491.892,324.6z M21.796,374.385h-1.687
	c-2.35,0-4.263-1.912-4.263-4.263v-25.415c0-2.35,1.912-4.263,4.263-4.263h1.687c-1.559,5.392-2.412,11.082-2.412,16.97
	S20.237,368.993,21.796,374.385z M425.919,197.579v-20.001c0-1.679,1.366-3.045,3.045-3.045h42.298v70.862h-28.957v-31.024
	C442.304,205.245,434.991,197.809,425.919,197.579z M426.458,214.371v39.55c0,0.533-0.434,0.968-0.969,0.968h-17.177
	c-0.533,0-0.968-0.434-0.968-0.968v-39.55c0-0.533,0.434-0.969,0.968-0.969h17.177C426.024,213.402,426.458,213.837,426.458,214.371
	z M67.673,109.216h256.876c8.295,0,15.431,5.042,18.514,12.22H49.158C52.242,114.258,59.378,109.216,67.673,109.216z M80.6,402.785
	c-25.017,0-45.369-20.353-45.369-45.37c0-25.018,20.353-45.37,45.369-45.37c25.018,0,45.37,20.353,45.37,45.37
	C125.97,382.432,105.617,402.785,80.6,402.785z M141.287,349.492c-3.9-30.023-29.618-53.293-60.687-53.293
	c-12.177,0-23.525,3.589-33.071,9.742V137.283h297.163V296.73c-27.427,3.563-49.201,25.336-52.764,52.763H141.287V349.492z
	 M352.615,402.785c-25.018,0-45.37-20.353-45.37-45.37c0-25.018,20.354-45.37,45.37-45.37s45.369,20.353,45.369,45.37
	C397.984,382.432,377.632,402.785,352.615,402.785z M439.685,344.707v4.784h-26.385c-3.562-27.427-25.336-49.201-52.763-52.763
	V137.283h81.395c13.427,0,24.766,9.071,28.232,21.405h-41.202c-10.416,0-18.89,8.474-18.89,18.891v19.98h-1.76
	c-9.271,0-16.814,7.543-16.814,16.815v39.55c0,9.271,7.543,16.814,16.814,16.814h17.177c6.646,0,12.386-3.885,15.115-9.494h30.657
	v63.359h-11.467C448.706,324.6,439.685,333.62,439.685,344.707z M496.154,370.122c0,2.35-1.912,4.263-4.263,4.263h-32.098
	c-2.35,0-4.263-1.912-4.263-4.263v-25.415c0-2.35,1.912-4.263,4.263-4.263h32.098c2.35,0,4.263,1.912,4.263,4.263V370.122z"/>
</svg>